/* XPM */
static char *_5c9f3e95e7c4a118266c4c09acbf6a92swjLuECoRt05REL[] = {
/* columns rows colors chars-per-pixel */
"32 32 2 1 ",
"  c #4E4747",
". c #7D7171",
/* pixels */
"                                ",
" ........ ............ ........ ",
" ........ ............ ........ ",
" ........ ............ ........ ",
" ........ ............ ........ ",
" ........ ............ ........ ",
" ........ ............ ........ ",
" ........ ............ ........ ",
"                                ",
" ........ ............ ........ ",
" ........ ............ ........ ",
" ........ ............ ........ ",
" ........ ............ ........ ",
" ........ ............ ........ ",
" ........ ............ ........ ",
" ........ ............ ........ ",
" ........ ............ ........ ",
" ........ ............ ........ ",
" ........ ............ ........ ",
" ........ ............ ........ ",
" ........ ............ ........ ",
"                                ",
" ........ ............ ........ ",
" ........ ............ ........ ",
" ........ ............ ........ ",
" ........ ............ ........ ",
" ........ ............ ........ ",
" ........ ............ ........ ",
" ........ ............ ........ ",
" ........ ............ ........ ",
" ........ ............ ........ ",
"                                "
};
