/* XPM */
static char *fdcba8f09c2d4896870b15695fdbb7b7y9ZLtDeKBYuQBe1G[] = {
/* columns rows colors chars-per-pixel */
"32 32 3 1 ",
"  c None",
". c #F5810B",
"X c #F5A00B",
/* pixels */
"................................",
".XXXXXXX..       ...........  . ",
".XXXXXXX..     . ...........    ",
"................................",
"................................",
"......     . ..XXXXXXX..       .",
".......      ..XXXXXXX.. .     .",
"................................",
"................................",
".XXXXXXX..   .   ..       ..    ",
".XXXXXXX..       ..       ...   ",
"................................",
"................................",
"   ............XXXXXXX..       .",
"    ...........XXXXXXX..   .   .",
"................................",
"................................",
" ...........      ..   . ...    ",
" ......  ....     .. ..   ...   ",
"................................",
"................................",
"XXXXX..       ..........XXXXXXX.",
"XXXXX..  .    ..........XXXXXXX.",
"................................",
"................................",
".       ...XXXXXXX..       ...  ",
".  .     ..XXXXXXX.. .     ..   ",
"................................",
"................................",
"     ..   .  ..         ..  .   ",
" .   ..      ..       . ..      ",
"................................"
};
