/* XPM */
static char *_7b6ee46ecbb4b60c181eb674a0c968dzkKLzdxyp0dWfqiv[] = {
/* columns rows colors chars-per-pixel */
"32 32 3 1 ",
"  c None",
". c #F5810B",
"X c #F5A00B",
/* pixels */
"................................",
".XXXXXXX..     ............. .. ",
".XXXXXXX..  ...  ...........   .",
"................................",
"................................",
"......  ..   ..XXXXXXX..   ..  .",
"........  .. ..XXXXXXX..     . .",
"................................",
"................................",
".XXXXXXX..  ...  ..   ..  ..    ",
".XXXXXXX..     ....     ....  ..",
"................................",
"................................",
".   ...........XXXXXXX..  .... .",
" .  ...........XXXXXXX..      ..",
"................................",
"................................",
" .............    ..  .. ...   .",
" ......  .. . ..  .. ..   ..... ",
"................................",
"................................",
"XXXXX..  ..   ..........XXXXXXX.",
"XXXXX..    .. ..........XXXXXXX.",
"................................",
"................................",
". ..     ..XXXXXXX..   ..  ..  .",
".   ..   ..XXXXXXX.. ..    .. . ",
"................................",
"................................",
"..   ..  ..  .. ..      ..  ..  ",
"  .. ..    ....   ....  ..    ..",
"................................"
};
